<svg xmlns="http://www.w3.org/2000/svg" version="1.1" xmlns:xlink="http://www.w3.org/1999/xlink" xmlns:svgjs="http://svgjs.dev/svgjs" width="2000" height="1999" viewBox="0 0 2000 1999"><g transform="matrix(1,0,0,1,-0.431486880466764,-0.4312711370263287)"><svg viewBox="0 0 343 343" data-background-color="#ffffff" preserveAspectRatio="xMidYMid meet" height="1999" width="2000" xmlns="http://www.w3.org/2000/svg" xmlns:xlink="http://www.w3.org/1999/xlink"><g id="tight-bounds" transform="matrix(1,0,0,1,0.0740000000000407,0.07400000000001228)"><svg viewBox="0 0 342.85155851775386 342.85155851775386" height="342.85155851775386" width="342.85155851775386"><g><svg></svg></g><g><svg viewBox="0 0 342.85155851775386 342.85155851775386" height="342.85155851775386" width="342.85155851775386"><g><path d="M0 171.426c0-94.676 76.75-171.426 171.426-171.426 94.676 0 171.426 76.75 171.426 171.426 0 94.676-76.75 171.426-171.426 171.426-94.676 0-171.426-76.75-171.426-171.426zM171.426 339.987c93.094 0 168.561-75.467 168.561-168.561 0-93.094-75.467-168.561-168.561-168.561-93.094 0-168.561 75.467-168.561 168.561 0 93.094 75.467 168.561 168.561 168.561z" data-fill-palette-color="tertiary" fill="#006f42" stroke="transparent"></path><ellipse rx="164.56874808852186" ry="164.56874808852186" cx="171.42577925887693" cy="171.42577925887693" fill="#006f42" stroke="transparent" stroke-width="0" fill-opacity="1" data-fill-palette-color="tertiary"></ellipse></g><g transform="matrix(1,0,0,1,64.84655864529837,105.92473364508628)"><svg viewBox="0 0 213.1584412271571 131.0020912275813" height="131.0020912275813" width="213.1584412271571"><g><svg viewBox="0 0 213.1584412271571 131.0020912275813" height="131.0020912275813" width="213.1584412271571"><g><svg viewBox="0 0 213.1584412271571 131.0020912275813" height="131.0020912275813" width="213.1584412271571"><g transform="matrix(1,0,0,1,0,79.15391972516173)"><svg viewBox="0 0 213.1584412271571 51.848171502419575" height="51.848171502419575" width="213.1584412271571"><g id="textblocktransform"><svg viewBox="0 0 213.1584412271571 51.848171502419575" height="51.848171502419575" width="213.1584412271571" id="textblock"><g><svg viewBox="0 0 213.1584412271571 31.76835726129663" height="31.76835726129663" width="213.1584412271571"><g transform="matrix(1,0,0,1,0,0)"><svg width="213.1584412271571" viewBox="1.4 -33.48 228.28 34.029999999999994" height="31.76835726129663" data-palette-color="#ffffff"><path d="M17.75-17.35L13.63 0 7.4 0 1.4-24.4 5.58-24.4 10.38-2.95 10.85-2.95 15.85-23.75 21.58-23.75 26.58-2.95 27.03-2.95 31.88-24.4 36.02-24.4 30.03 0 23.83 0 19.7-17.35 18.9-20.83 18.53-20.83 17.75-17.35ZM44.8-24.4L44.8 0 40.75 0 40.75-24.4 44.8-24.4ZM42.77-28.4L42.77-28.4Q41.52-28.4 40.91-29.06 40.3-29.73 40.3-30.88L40.3-30.88 40.3-31Q40.3-32.18 40.91-32.83 41.52-33.48 42.77-33.48L42.77-33.48Q44.02-33.48 44.65-32.83 45.27-32.18 45.27-31L45.27-31 45.27-30.88Q45.27-29.7 44.65-29.05 44.02-28.4 42.77-28.4ZM60.67-13.6L72.2 0 67.35 0 57.7-11.38 55.12-11.38 55.12-14.53 57.7-14.53 66.95-24.4 71.75-24.4 60.67-12.63 60.67-13.6ZM55.52-33.13L55.52 0 51.5 0 51.5-33.13 55.52-33.13ZM80.27-24.4L80.27 0 76.22 0 76.22-24.4 80.27-24.4ZM78.24-28.4L78.24-28.4Q76.99-28.4 76.38-29.06 75.77-29.73 75.77-30.88L75.77-30.88 75.77-31Q75.77-32.18 76.38-32.83 76.99-33.48 78.24-33.48L78.24-33.48Q79.49-33.48 80.12-32.83 80.74-32.18 80.74-31L80.74-31 80.74-30.88Q80.74-29.7 80.12-29.05 79.49-28.4 78.24-28.4ZM96.37 0.55L96.37 0.55Q91.12 0.55 88.55-2.29 85.99-5.13 85.99-10.33L85.99-10.33 85.99-14.13Q85.99-19.35 88.57-22.16 91.14-24.98 96.37-24.98L96.37-24.98Q97.92-24.98 99.19-24.69 100.47-24.4 101.48-23.94 102.49-23.48 103.19-22.98L103.19-22.98 103.54-19.45Q102.37-20.35 100.75-20.98 99.14-21.6 96.97-21.6L96.97-21.6Q93.47-21.6 91.75-19.66 90.04-17.73 90.04-14.03L90.04-14.03 90.04-10.43Q90.04-6.8 91.75-4.85 93.47-2.9 96.97-2.9L96.97-2.9Q99.22-2.9 100.85-3.53 102.49-4.15 103.77-5.05L103.77-5.05 103.39-1.48Q102.29-0.73 100.52-0.09 98.74 0.55 96.37 0.55ZM108.14-8.78L108.14-24.4 112.16-24.4 112.16-9.22Q112.16-7.3 112.7-5.86 113.24-4.42 114.46-3.64 115.69-2.85 117.76-2.85L117.76-2.85Q119.71-2.85 121.11-3.56 122.51-4.28 123.4-5.53 124.29-6.78 124.61-8.35L124.61-8.35 125.34-5.48 124.46-5.48Q124.09-3.83 123.09-2.46 122.09-1.1 120.4-0.29 118.71 0.53 116.24 0.53L116.24 0.53Q113.36 0.53 111.58-0.56 109.79-1.65 108.96-3.74 108.14-5.83 108.14-8.78L108.14-8.78ZM124.44-6.1L124.44-24.4 128.49-24.4 128.49 0 124.44 0 124.61-5.85 124.44-6.1ZM139.24-33.13L139.24 0 135.21 0 135.21-33.13 139.24-33.13ZM154.83 0.5L154.83 0.5Q152.01 0.5 150.28-0.35 148.56-1.2 147.78-2.93 147.01-4.65 147.01-7.23L147.01-7.23 147.01-22.63 151.01-22.63 151.01-7.7Q151.01-5.3 152.11-4.16 153.21-3.03 155.81-3.03L155.81-3.03Q157.28-3.03 158.65-3.35 160.01-3.68 161.21-4.28L161.21-4.28 160.83-0.8Q159.66-0.2 158.08 0.15 156.51 0.5 154.83 0.5ZM160.96-24.05L160.58-20.8 143.01-20.8 143.01-24.05 160.96-24.05ZM151.08-31.03L150.91-23.65 147.03-23.65 147.01-30.5 151.08-31.03ZM165.16-8.78L165.16-24.4 169.18-24.4 169.18-9.22Q169.18-7.3 169.72-5.86 170.26-4.42 171.48-3.64 172.71-2.85 174.78-2.85L174.78-2.85Q176.73-2.85 178.13-3.56 179.53-4.28 180.42-5.53 181.31-6.78 181.63-8.35L181.63-8.35 182.36-5.48 181.48-5.48Q181.11-3.83 180.11-2.46 179.11-1.1 177.42-0.29 175.73 0.53 173.26 0.53L173.26 0.53Q170.38 0.53 168.59-0.56 166.81-1.65 165.98-3.74 165.16-5.83 165.16-8.78L165.16-8.78ZM181.46-6.1L181.46-24.4 185.51-24.4 185.51 0 181.46 0 181.63-5.85 181.46-6.1ZM195.95-14.93L195.95-14.93 195.03-18.05 196.03-18.1Q196.83-21.2 198.78-22.99 200.73-24.78 203.95-24.78L203.95-24.78Q204.75-24.78 205.39-24.65 206.03-24.53 206.53-24.35L206.53-24.35 206.78-20.43Q206.15-20.63 205.39-20.75 204.63-20.88 203.7-20.88L203.7-20.88Q200.95-20.88 198.92-19.35 196.88-17.82 195.95-14.93ZM196.15-16.9L196.15 0 192.1 0 192.1-24.4 196.05-24.4 195.85-17.2 196.15-16.9ZM220.35 0.55L220.35 0.55Q214.78 0.55 211.95-2.18 209.13-4.9 209.13-9.98L209.13-9.98 209.13-14.33Q209.13-19.48 211.75-22.26 214.38-25.05 219.43-25.05L219.43-25.05Q222.83-25.05 225.1-23.79 227.38-22.53 228.53-20.2 229.68-17.88 229.68-14.65L229.68-14.65 229.68-13.75Q229.68-12.95 229.61-12.15 229.55-11.35 229.45-10.58L229.45-10.58 225.73-10.58Q225.78-11.78 225.79-12.85 225.8-13.93 225.8-14.83L225.8-14.83Q225.8-17.05 225.09-18.59 224.38-20.13 222.96-20.94 221.55-21.75 219.43-21.75L219.43-21.75Q216.28-21.75 214.7-19.93 213.13-18.1 213.13-14.7L213.13-14.7 213.13-12.38 213.15-11.88 213.15-9.55Q213.15-8.03 213.6-6.8 214.05-5.58 215.01-4.69 215.98-3.8 217.46-3.34 218.95-2.88 221-2.88L221-2.88Q223.38-2.88 225.43-3.5 227.48-4.13 229.28-5.2L229.28-5.2 228.9-1.7Q227.28-0.68 225.13-0.06 222.98 0.55 220.35 0.55ZM228.6-13.63L228.6-10.58 211.25-10.58 211.25-13.63 228.6-13.63Z" opacity="1" transform="matrix(1,0,0,1,0,0)" fill="#ffffff" class="wordmark-text-0" data-fill-palette-color="quaternary" id="text-0"></path></svg></g></svg></g><g transform="matrix(1,0,0,1,0,39.268103970114495)"><svg viewBox="0 0 213.1584412271571 12.580067532305081" height="12.580067532305081" width="213.1584412271571"><g transform="matrix(1,0,0,1,0,0)"><svg width="213.1584412271571" viewBox="0.93 -43.16 736.2400000000001 43.449999999999996" height="12.580067532305081" data-palette-color="#ffffff"><path d="M3.71-1.86L1.86-24.37Q1.76-24.46 1.61-24.71 1.46-24.95 1.32-25.27 1.17-25.59 1.05-25.85 0.93-26.12 0.93-26.27L0.93-26.27Q0.93-26.71 1.32-26.95 1.71-27.2 2.2-27.25 2.69-27.29 3.15-27.29 3.61-27.29 3.71-27.29L3.71-27.29Q3.86-27.29 4.13-27.27 4.39-27.25 4.71-27.22 5.03-27.2 5.27-27.17 5.52-27.15 5.62-27.15L5.62-27.15Q7.23-26.56 9.3-25.78 11.38-25 13.57-23.97 15.77-22.95 17.87-21.66 19.97-20.36 21.63-18.73 23.29-17.09 24.32-15.14 25.34-13.18 25.34-10.79L25.34-10.79Q25.34-8.74 24.56-7.1 23.78-5.47 22.49-4.27 21.19-3.08 19.48-2.22 17.77-1.37 15.99-0.85 14.21-0.34 12.4-0.1 10.6 0.15 9.03 0.15L9.03 0.15Q8.69 0.15 7.86 0.12 7.03 0.1 6.15 0.05 5.27 0 4.57-0.02 3.86-0.05 3.81-0.05L3.81-0.05 3.71-1.86ZM4.64-24.61L4.64-24.61Q4.64-24.51 4.64-24.22 4.64-23.93 4.66-23.56 4.69-23.19 4.69-22.9 4.69-22.61 4.69-22.46L4.69-22.46Q4.74-21.73 4.81-20.12 4.88-18.51 4.96-16.46 5.03-14.4 5.15-12.18 5.27-9.96 5.37-7.93 5.47-5.91 5.54-4.27 5.62-2.64 5.62-1.86L5.62-1.86Q5.91-1.86 6.57-1.83 7.23-1.81 7.96-1.78 8.69-1.76 9.35-1.73 10.01-1.71 10.3-1.71L10.3-1.71Q12.55-1.71 14.75-2.27 16.94-2.83 18.68-3.98 20.41-5.13 21.51-6.96 22.61-8.79 22.61-11.38L22.61-11.38Q22.61-13.28 21.73-15.01 20.85-16.75 19.41-18.21 17.97-19.68 16.11-20.85 14.26-22.02 12.28-22.88 10.3-23.73 8.33-24.17 6.35-24.61 4.64-24.61ZM30.27 0.1L29.54-18.95Q30.12-18.95 30.54-18.99 30.95-19.04 31.25-18.51L31.25-18.51Q31.39-16.31 31.59-14.04 31.78-11.77 31.98-9.47 32.18-7.18 32.25-4.86 32.32-2.54 32.27-0.34L32.27-0.34Q32.27-0.05 32.13 0.02 31.98 0.1 31.71 0.07 31.44 0.05 31.08 0.02 30.71 0 30.27 0.1L30.27 0.1ZM26.71-27.69L26.71-27.69Q26.71-28.03 26.76-28.44 26.8-28.86 26.98-29.2 27.15-29.54 27.41-29.79 27.68-30.03 28.07-30.03L28.07-30.03Q28.66-30.03 29.25-29.98 29.83-29.93 30.37-29.76 30.91-29.59 31.25-29.22 31.59-28.86 31.59-28.17L31.59-28.17Q31.59-27 30.71-26.1 29.83-25.2 28.56-25.2L28.56-25.2Q27.59-25.2 27.15-25.95 26.71-26.71 26.71-27.69ZM29.54-27.44L29.54-27.44Q29.39-27.44 29.39-27.2 29.39-26.95 29.54-26.95L29.54-26.95Q29.73-26.95 29.73-27.2 29.73-27.44 29.54-27.44ZM36.86-3.96L36.86-3.96Q37.74-3.96 38.5-3.61 39.25-3.27 39.99-2.86 40.72-2.44 41.47-2.12 42.23-1.81 43.11-1.81L43.11-1.81Q44.14-1.81 45.23-2.17 46.33-2.54 47.26-3.2 48.19-3.86 48.77-4.81 49.36-5.76 49.36-6.88L49.36-6.88Q49.41-7.23 49.38-7.71 49.36-8.2 49.07-8.72 48.77-9.23 48.09-9.69 47.41-10.16 46.11-10.4 44.82-10.64 42.87-10.67 40.91-10.69 38.03-10.3L38.03-10.3Q37.3-10.3 36.62-10.72 35.93-11.13 35.4-11.74 34.86-12.35 34.52-13.06 34.17-13.77 34.17-14.4L34.17-14.4Q34.17-16.31 34.98-17.5 35.79-18.7 37.06-19.41 38.33-20.12 39.89-20.41 41.45-20.7 43.06-20.7L43.06-20.7Q43.79-20.7 44.75-20.63 45.7-20.56 46.5-20.24 47.31-19.92 47.87-19.24 48.43-18.55 48.43-17.33L48.43-17.33Q48.33-16.5 48.16-16.33 47.99-16.16 47.68-16.43 47.36-16.7 46.92-17.19 46.48-17.68 45.87-18.14 45.26-18.6 44.4-18.85 43.55-19.09 42.48-18.85L42.48-18.85Q41.35-18.85 40.23-18.63 39.11-18.41 38.2-17.87 37.3-17.33 36.74-16.41 36.18-15.48 36.18-14.06L36.18-14.06Q36.18-13.33 36.84-13.06 37.5-12.79 38.59-12.79 39.69-12.79 41.08-12.87 42.48-12.94 43.94-12.94 45.41-12.94 46.77-12.72 48.14-12.5 49.19-11.84 50.24-11.18 50.83-9.96 51.41-8.74 51.26-6.79L51.26-6.79Q51.26-5.37 50.46-4.1 49.65-2.83 48.41-1.88 47.16-0.93 45.65-0.39 44.14 0.15 42.72 0L42.72 0Q42.13-0.05 41.13-0.32 40.13-0.59 39.18-1.07 38.23-1.56 37.54-2.27 36.86-2.98 36.86-3.96ZM53.51-8.35L53.51-8.35Q53.51-10.16 54.09-12.35 54.68-14.55 55.8-16.43 56.93-18.31 58.59-19.58 60.25-20.85 62.44-20.85L62.44-20.85Q63.57-21 64.25-20.63 64.93-20.26 65.3-19.48 65.67-18.7 65.79-17.7 65.91-16.7 65.93-15.65 65.96-14.6 65.93-13.7 65.91-12.79 66.01-12.21L66.01-12.21 64.79-12.21Q64.74-12.5 64.62-13.6 64.49-14.7 64.2-15.87 63.91-17.04 63.4-17.97 62.88-18.9 61.96-18.9L61.96-18.9Q60.59-18.9 59.39-17.82 58.2-16.75 57.32-15.23 56.44-13.72 55.9-12.11 55.36-10.5 55.36-9.42L55.36-9.42Q55.41-8.2 55.71-6.76 56-5.32 56.66-4.15 57.32-2.98 58.39-2.25 59.47-1.51 61.03-1.81L61.03-1.81Q62.2-1.81 63.27-2.29 64.35-2.78 65.37-3.32 66.4-3.86 67.45-4.35 68.5-4.83 69.67-4.83L69.67-4.83Q69.67-3.56 68.74-2.61 67.81-1.66 66.47-1.07 65.13-0.49 63.64-0.2 62.15 0.1 61.13 0.1L61.13 0.1Q59.47 0.1 58.07-0.59 56.68-1.27 55.66-2.42 54.63-3.56 54.07-5.1 53.51-6.64 53.51-8.35ZM72.06-8.94L72.06-8.94Q72.06-10.06 72.26-11.55 72.45-13.04 72.89-14.55 73.33-16.06 73.99-17.53 74.65-18.99 75.58-20.14 76.5-21.29 77.72-22 78.95-22.71 80.46-22.71L80.46-22.71Q82.02-22.71 83.36-21.63 84.71-20.56 85.66-18.85 86.61-17.14 87.1-15.04 87.59-12.94 87.49-10.94L87.49-10.94Q87.49-8.01 86.37-5.71 85.24-3.42 83.51-2 81.78-0.59 79.8-0.1 77.82 0.39 76.09-0.37 74.36-1.12 73.21-3.22 72.06-5.32 72.06-8.94ZM73.87-8.74L73.87-8.74Q74.01-5.76 74.89-4.15 75.77-2.54 77.02-2.03 78.26-1.51 79.73-2 81.19-2.49 82.46-3.74 83.73-4.98 84.63-6.86 85.54-8.74 85.63-11.08L85.63-11.08Q85.73-12.84 85.37-14.5 85-16.16 84.34-17.46 83.68-18.75 82.73-19.51 81.78-20.26 80.56-20.26L80.56-20.26Q79.38-20.26 78.46-19.68 77.53-19.09 76.77-18.09 76.02-17.09 75.48-15.82 74.94-14.55 74.57-13.28 74.21-12.01 74.04-10.82 73.87-9.62 73.87-8.74ZM101.11 0.24L89.49-21.58 91-23.1 101.75-3.56 106.34-22.46Q106.68-22.31 107.07-22.24 107.46-22.17 107.78-22.09 108.09-22.02 108.29-21.92 108.48-21.83 108.48-21.58L108.48-21.58Q107.85-18.46 107.29-15.72 106.73-12.99 106.09-10.4 105.46-7.81 104.72-5.2 103.99-2.59 103.01 0.24L103.01 0.24 101.11 0.24ZM109.7-11.47L109.7-11.47Q109.7-12.94 110.34-14.72 110.97-16.5 112.07-18.04 113.17-19.58 114.56-20.63 115.95-21.68 117.47-21.68L117.47-21.68Q118.3-21.68 119.1-21.34 119.91-21 120.66-20.43 121.42-19.87 122.03-19.17 122.64-18.46 122.98-17.68 123.32-16.89 123.35-16.16 123.37-15.43 122.93-14.89L122.93-14.89 112.63-12.99Q112.44-12.94 112.29-12.52 112.14-12.11 112.05-11.47 111.95-10.84 111.87-10.08 111.8-9.33 111.75-8.62 111.7-7.91 111.7-7.35 111.7-6.79 111.7-6.49L111.7-6.49Q111.7-5.13 112.36-4.27 113.02-3.42 114.05-2.98 115.07-2.54 116.37-2.39 117.66-2.25 118.93-2.25 120.2-2.25 121.32-2.34 122.45-2.44 123.18-2.44L123.18-2.44Q123.18-2.25 123.03-2 122.89-1.76 122.69-1.54 122.49-1.32 122.3-1.15 122.1-0.98 122.06-0.93L122.06-0.93Q121.66-0.83 120.86-0.66 120.05-0.49 119.15-0.34 118.25-0.2 117.47-0.1 116.68 0 116.39 0L116.39 0Q114.88 0.29 113.75-0.05 112.63-0.39 111.85-1.22 111.07-2.05 110.58-3.25 110.09-4.44 109.85-5.81 109.6-7.18 109.58-8.64 109.56-10.11 109.7-11.47ZM116.78-19.82L116.78-19.82Q116.34-19.82 115.63-19.36 114.93-18.9 114.32-18.19 113.71-17.48 113.29-16.67 112.88-15.87 113.02-15.28L113.02-15.28Q114.29-15.14 115.66-15.33 117.03-15.53 118.15-15.94 119.27-16.36 120-16.92 120.74-17.48 120.71-18.07 120.69-18.65 119.78-19.12 118.88-19.58 116.78-19.82ZM125.52-19.04L125.52-19.04Q126.11-19.29 126.55-19.14 126.98-18.99 127.28-18.6 127.57-18.21 127.72-17.7 127.86-17.19 127.96-16.7L127.96-16.7Q128.6-17.77 129.79-18.43 130.99-19.09 132.36-19.31 133.72-19.53 135.09-19.41 136.46-19.29 137.41-18.82 138.36-18.36 138.75-17.55 139.14-16.75 138.56-15.67L138.56-15.67Q137.29-16.41 135.9-16.85 134.5-17.29 133.19-17.14 131.87-16.99 130.74-16.14 129.62-15.28 128.89-13.43 128.16-11.57 127.99-8.52 127.81-5.47 128.4-0.93L128.4-0.93 126.55-0.93Q126.55-0.93 126.47-1.73 126.4-2.54 126.33-3.86 126.25-5.18 126.13-6.79 126.01-8.4 125.91-10.06 125.81-11.72 125.74-13.26 125.67-14.79 125.57-15.92L125.57-15.92Q125.57-16.06 125.54-16.5 125.52-16.94 125.52-17.46 125.52-17.97 125.52-18.41 125.52-18.85 125.52-19.04ZM165.5-17.72L165.5-17.72Q165.07-17.87 164.31-17.85 163.55-17.82 162.7-17.75 161.84-17.68 161.06-17.58 160.28-17.48 159.74-17.48L159.74-17.48Q159.5-17.48 159.43-18.19 159.35-18.9 159.21-20.12L159.21-20.12 166.09-20.61Q166.24-22.31 166.29-23.05 166.33-23.78 166.31-24.29 166.29-24.8 166.26-25.46 166.24-26.12 166.24-27.54L166.24-27.54Q167.51-27.73 168.17-27.66 168.83-27.59 169.07-27.29 169.31-27 169.29-26.44 169.26-25.88 169.14-25.05 169.02-24.22 168.95-23.05 168.87-21.88 169.02-20.41L169.02-20.41 174.88-20.61 174.88-18.21Q174.49-18.21 173.66-18.16 172.83-18.12 171.88-18.07 170.92-18.02 170.12-17.97 169.31-17.92 168.92-17.77L168.92-17.77Q168.53-16.02 168.09-14.01 167.65-12.01 167.51-10.06 167.36-8.11 167.6-6.42 167.85-4.74 168.83-3.64 169.8-2.54 171.61-2.12 173.42-1.71 176.39-2.39L176.39-2.39Q176.3-1.66 175.83-1.2 175.37-0.73 174.76-0.46 174.15-0.2 173.46-0.07 172.78 0.05 172.24 0.05L172.24 0.05Q169.75 0.05 168.29-0.85 166.82-1.76 166.09-3.22 165.36-4.69 165.16-6.57 164.97-8.45 165.04-10.4 165.11-12.35 165.31-14.26 165.5-16.16 165.5-17.72ZM178.44-33.74L180.05-33.5 181.32-17.48Q181.66-17.77 182.2-18.36 182.74-18.95 183.47-19.46 184.2-19.97 185.08-20.34 185.96-20.7 186.99-20.65L186.99-20.65Q188.99-20.46 190.18-19.04 191.38-17.63 191.99-15.58 192.6-13.53 192.8-11.11 192.99-8.69 192.92-6.49 192.85-4.3 192.68-2.59 192.5-0.88 192.41-0.24L192.41-0.24 190.65-0.49Q190.65-0.93 190.67-1.88 190.7-2.83 190.75-4.13 190.8-5.42 190.8-6.84 190.8-8.25 190.82-9.5 190.84-10.74 190.82-11.72 190.8-12.7 190.75-13.09L190.75-13.09Q190.8-14.45 190.21-15.72 189.62-16.99 188.65-17.65 187.67-18.31 186.3-18.09 184.94-17.87 183.37-16.16L183.37-16.16Q182.01-14.11 181.37-12.13 180.74-10.16 180.54-8.23 180.35-6.3 180.39-4.27 180.44-2.25 180.39 0L180.39 0 178.49-0.29Q178.64-0.83 178.71-2.27 178.78-3.71 178.83-5.74 178.88-7.76 178.91-10.25 178.93-12.74 178.91-15.41 178.88-18.07 178.83-20.75 178.78-23.44 178.71-25.88 178.64-28.32 178.56-30.37 178.49-32.42 178.44-33.74L178.44-33.74ZM195.24-11.47L195.24-11.47Q195.24-12.94 195.87-14.72 196.51-16.5 197.6-18.04 198.7-19.58 200.09-20.63 201.49-21.68 203-21.68L203-21.68Q203.83-21.68 204.64-21.34 205.44-21 206.2-20.43 206.95-19.87 207.57-19.17 208.18-18.46 208.52-17.68 208.86-16.89 208.88-16.16 208.91-15.43 208.47-14.89L208.47-14.89 198.17-12.99Q197.97-12.94 197.82-12.52 197.68-12.11 197.58-11.47 197.48-10.84 197.41-10.08 197.34-9.33 197.29-8.62 197.24-7.91 197.24-7.35 197.24-6.79 197.24-6.49L197.24-6.49Q197.24-5.13 197.9-4.27 198.56-3.42 199.58-2.98 200.61-2.54 201.9-2.39 203.2-2.25 204.46-2.25 205.73-2.25 206.86-2.34 207.98-2.44 208.71-2.44L208.71-2.44Q208.71-2.25 208.57-2 208.42-1.76 208.22-1.54 208.03-1.32 207.83-1.15 207.64-0.98 207.59-0.93L207.59-0.93Q207.2-0.83 206.39-0.66 205.59-0.49 204.68-0.34 203.78-0.2 203-0.1 202.22 0 201.93 0L201.93 0Q200.41 0.29 199.29-0.05 198.17-0.39 197.38-1.22 196.6-2.05 196.12-3.25 195.63-4.44 195.38-5.81 195.14-7.18 195.11-8.64 195.09-10.11 195.24-11.47ZM202.32-19.82L202.32-19.82Q201.88-19.82 201.17-19.36 200.46-18.9 199.85-18.19 199.24-17.48 198.83-16.67 198.41-15.87 198.56-15.28L198.56-15.28Q199.83-15.14 201.19-15.33 202.56-15.53 203.68-15.94 204.81-16.36 205.54-16.92 206.27-17.48 206.25-18.07 206.22-18.65 205.32-19.12 204.42-19.58 202.32-19.82ZM247.43 0.29L229.85-31.84 231.32-33.3 246.99-5.62 252.36-34.67 253.92-34.67 248.6-0.93 247.43 0.29ZM259 0.1L258.27-18.95Q258.85-18.95 259.27-18.99 259.68-19.04 259.97-18.51L259.97-18.51Q260.12-16.31 260.32-14.04 260.51-11.77 260.71-9.47 260.9-7.18 260.98-4.86 261.05-2.54 261-0.34L261-0.34Q261-0.05 260.85 0.02 260.71 0.1 260.44 0.07 260.17 0.05 259.8 0.02 259.44 0 259 0.1L259 0.1ZM255.43-27.69L255.43-27.69Q255.43-28.03 255.48-28.44 255.53-28.86 255.7-29.2 255.87-29.54 256.14-29.79 256.41-30.03 256.8-30.03L256.8-30.03Q257.39-30.03 257.97-29.98 258.56-29.93 259.1-29.76 259.63-29.59 259.97-29.22 260.32-28.86 260.32-28.17L260.32-28.17Q260.32-27 259.44-26.1 258.56-25.2 257.29-25.2L257.29-25.2Q256.31-25.2 255.87-25.95 255.43-26.71 255.43-27.69ZM258.27-27.44L258.27-27.44Q258.12-27.44 258.12-27.2 258.12-26.95 258.27-26.95L258.27-26.95Q258.46-26.95 258.46-27.2 258.46-27.44 258.27-27.44ZM262.76-31.84L264.66-31.84Q264.86-30.08 265.07-27.95 265.29-25.83 265.44-23.61 265.59-21.39 265.64-19.17 265.69-16.94 265.59-14.99L265.59-14.99Q266.37-15.67 267.03-16.19 267.69-16.7 268.35-17.09 269.01-17.48 269.66-17.68 270.32-17.87 271.2-17.87L271.2-17.87Q272.96-17.87 274.43-17.02 275.89-16.16 276.92-14.77 277.94-13.38 278.5-11.69 279.06-10.01 279.06-8.4L279.06-8.4Q278.97-5.66 277.94-4.03 276.92-2.39 275.23-1.51 273.55-0.63 271.28-0.49 269.01-0.34 266.52-0.54L266.52-0.54 266.52-2.83Q267.39-2.05 268.13-1.93 268.86-1.81 269.88-1.81L269.88-1.81Q271.5-1.81 272.81-2.29 274.13-2.78 275.08-3.69 276.04-4.59 276.55-5.86 277.06-7.13 277.06-8.64L277.06-8.64Q277.06-9.96 276.92-10.99 276.77-12.01 276.26-12.84 275.74-13.67 274.77-14.43 273.79-15.19 272.13-15.92L272.13-15.92Q272.03-15.97 271.69-15.99 271.35-16.02 271.2-16.02L271.2-16.02Q270.42-16.02 269.64-15.55 268.86-15.09 268.22-14.38 267.59-13.67 267.15-12.82 266.71-11.96 266.52-11.23L266.52-11.23Q266.42-10.64 266.25-9.16 266.08-7.67 265.86-5.96 265.64-4.25 265.49-2.73 265.34-1.22 265.25-0.63L265.25-0.63 263.73-0.93 262.76-31.84ZM281.01-19.04L281.01-19.04Q281.6-19.29 282.04-19.14 282.48-18.99 282.77-18.6 283.07-18.21 283.21-17.7 283.36-17.19 283.46-16.7L283.46-16.7Q284.09-17.77 285.29-18.43 286.48-19.09 287.85-19.31 289.22-19.53 290.59-19.41 291.95-19.29 292.9-18.82 293.86-18.36 294.25-17.55 294.64-16.75 294.05-15.67L294.05-15.67Q292.78-16.41 291.39-16.85 290-17.29 288.68-17.14 287.36-16.99 286.24-16.14 285.12-15.28 284.38-13.43 283.65-11.57 283.48-8.52 283.31-5.47 283.9-0.93L283.9-0.93 282.04-0.93Q282.04-0.93 281.97-1.73 281.89-2.54 281.82-3.86 281.75-5.18 281.63-6.79 281.5-8.4 281.41-10.06 281.31-11.72 281.23-13.26 281.16-14.79 281.06-15.92L281.06-15.92Q281.06-16.06 281.04-16.5 281.01-16.94 281.01-17.46 281.01-17.97 281.01-18.41 281.01-18.85 281.01-19.04ZM296.25-4.2L296.25-4.2Q296.25-6.98 297.78-8.25 299.32-9.52 301.81-9.52L301.81-9.52Q302.79-9.52 303.64-9.47 304.5-9.42 305.28-9.23 306.06-9.03 306.82-8.64 307.57-8.25 308.4-7.52L308.4-7.52Q308.4-7.67 308.43-8.13 308.45-8.59 308.45-9.13 308.45-9.67 308.45-10.13 308.45-10.6 308.45-10.79L308.45-10.79Q308.4-11.67 308.4-13.06 308.4-14.45 308.19-15.92 307.97-17.38 307.31-18.7 306.65-20.02 305.18-20.7L305.18-20.7Q304.16-20.7 303.28-20.36 302.4-20.02 301.52-19.63 300.64-19.24 299.76-18.92 298.88-18.6 297.86-18.6L297.86-18.6Q297.86-19.82 298.61-20.63 299.37-21.44 300.45-21.88 301.52-22.31 302.69-22.46 303.86-22.61 304.74-22.61L304.74-22.61Q305.62-22.46 306.38-22.27 307.14-22.07 307.79-21.48 308.45-20.9 309.02-19.7 309.58-18.51 309.99-16.36 310.41-14.21 310.72-10.91 311.04-7.62 311.24-2.83L311.24-2.83Q311.33-2.2 310.82-1.73 310.31-1.27 309.43-0.95 308.55-0.63 307.45-0.42 306.35-0.2 305.23-0.1 304.11 0 303.08 0.05 302.06 0.1 301.37 0.1L301.37 0.1Q300.49 0.1 299.59-0.2 298.69-0.49 297.93-1.05 297.17-1.61 296.71-2.42 296.25-3.22 296.25-4.2ZM302.59-7.62L302.59-7.62Q300.15-6.93 299.18-5.98 298.2-5.03 298.32-4.15 298.44-3.27 299.47-2.56 300.49-1.86 301.96-1.64 303.42-1.42 305.13-1.88 306.84-2.34 308.4-3.71L308.4-3.71Q307.82-5.13 307.23-5.88 306.65-6.64 305.96-7.03 305.28-7.42 304.45-7.52 303.62-7.62 302.59-7.62ZM313.87-0.24L313.87-0.24Q313.77-1.03 313.7-2.51 313.63-4 313.55-5.88 313.48-7.76 313.43-9.81 313.38-11.87 313.33-13.72 313.29-15.58 313.21-17.07 313.14-18.55 312.99-19.34L312.99-19.34Q312.99-19.38 312.97-19.58 312.94-19.78 312.92-20.02 312.89-20.26 312.89-20.43 312.89-20.61 312.89-20.7L312.89-20.7Q313.63-21.29 314.14-21.09 314.65-20.9 314.99-20.24 315.34-19.58 315.48-18.6 315.63-17.63 315.7-16.65 315.78-15.67 315.78-14.87 315.78-14.06 315.78-13.72L315.78-13.72Q315.87-14.55 316.07-15.67 316.26-16.8 316.65-17.97 317.04-19.14 317.61-20.29 318.17-21.44 319-22.31 319.83-23.19 320.88-23.68 321.93-24.17 323.29-24.07L323.29-24.07Q325.44-23.97 326.83-22.9 328.23-21.83 329.03-20.02 329.84-18.21 330.2-15.87 330.57-13.53 330.69-10.89 330.81-8.25 330.77-5.54 330.72-2.83 330.72-0.34L330.72-0.34Q330.28-0.24 329.84-0.02 329.4 0.2 329.11 0.17 328.81 0.15 328.69-0.27 328.57-0.68 328.76-1.9L328.76-1.9Q328.81-2.78 328.93-4.61 329.06-6.45 329.03-8.69 329.01-10.94 328.76-13.33 328.52-15.72 327.86-17.7 327.2-19.68 325.98-20.92 324.76-22.17 322.81-22.17L322.81-22.17Q320.8-21.34 319.46-19.04 318.12-16.75 317.31-13.67 316.51-10.6 316.14-7.01 315.78-3.42 315.73 0L315.73 0Q315.63-0.05 315.36-0.05 315.09-0.05 314.77-0.07 314.46-0.1 314.19-0.15 313.92-0.2 313.87-0.24ZM338.92-17.72L338.92-17.72Q338.48-17.87 337.72-17.85 336.96-17.82 336.11-17.75 335.26-17.68 334.47-17.58 333.69-17.48 333.16-17.48L333.16-17.48Q332.91-17.48 332.84-18.19 332.77-18.9 332.62-20.12L332.62-20.12 339.5-20.61Q339.65-22.31 339.7-23.05 339.75-23.78 339.72-24.29 339.7-24.8 339.67-25.46 339.65-26.12 339.65-27.54L339.65-27.54Q340.92-27.73 341.58-27.66 342.24-27.59 342.48-27.29 342.73-27 342.7-26.44 342.68-25.88 342.56-25.05 342.43-24.22 342.36-23.05 342.29-21.88 342.43-20.41L342.43-20.41 348.29-20.61 348.29-18.21Q347.9-18.21 347.07-18.16 346.24-18.12 345.29-18.07 344.34-18.02 343.53-17.97 342.73-17.92 342.34-17.77L342.34-17.77Q341.94-16.02 341.51-14.01 341.07-12.01 340.92-10.06 340.77-8.11 341.02-6.42 341.26-4.74 342.24-3.64 343.21-2.54 345.02-2.12 346.83-1.71 349.81-2.39L349.81-2.39Q349.71-1.66 349.24-1.2 348.78-0.73 348.17-0.46 347.56-0.2 346.88-0.07 346.19 0.05 345.66 0.05L345.66 0.05Q343.17 0.05 341.7-0.85 340.24-1.76 339.5-3.22 338.77-4.69 338.58-6.57 338.38-8.45 338.45-10.4 338.53-12.35 338.72-14.26 338.92-16.16 338.92-17.72ZM369.92-12.65L369.92-12.65Q369.92-14.16 370.24-16.04 370.55-17.92 371.19-19.85 371.82-21.78 372.77-23.61 373.73-25.44 374.97-26.88 376.22-28.32 377.8-29.2 379.39-30.08 381.3-30.08L381.3-30.08Q382.66-30.08 383.61-29.54 384.57-29 385.15-28.13 385.74-27.25 386.01-26.15 386.28-25.05 386.28-23.93L386.28-23.93Q385.2-23.93 384.66-24.58 384.13-25.24 383.66-26.05 383.2-26.86 382.59-27.51 381.98-28.17 380.76-28.17L380.76-28.17Q379.15-28.17 377.9-27.29 376.66-26.42 375.73-25.02 374.8-23.63 374.19-21.88 373.58-20.12 373.21-18.36 372.85-16.6 372.7-14.97 372.55-13.33 372.55-12.21L372.55-12.21Q372.36-10.55 372.53-8.76 372.7-6.98 373.34-5.49 373.97-4 375.19-3 376.41-2 378.41-1.86L378.41-1.86Q379.68-1.86 381.25-2.27 382.81-2.69 384.35-3.25 385.89-3.81 387.3-4.47 388.72-5.13 389.69-5.62L389.69-5.62 389.69-3.71Q389.64-3.71 389.08-3.49 388.52-3.27 387.62-2.93 386.72-2.59 385.57-2.2 384.42-1.81 383.3-1.39 382.17-0.98 381.12-0.61 380.07-0.24 379.34 0L379.34 0Q379.29 0 379.15 0.02 379 0.05 378.9 0.05L378.9 0.05Q376.22 0.05 374.48-1.1 372.75-2.25 371.72-4.08 370.7-5.91 370.31-8.18 369.92-10.45 369.92-12.65ZM391.5-18.95L391.5-18.95Q391.5-19.19 391.82-19.43 392.13-19.68 392.6-19.82 393.06-19.97 393.5-20.02 393.94-20.07 394.13-19.87L394.13-19.87Q394.43-13.82 395.28-10.23 396.14-6.64 397.24-4.98 398.33-3.32 399.6-3.3 400.87-3.27 402.09-4.37 403.31-5.47 404.36-7.37 405.41-9.28 406.07-11.47 406.73-13.67 406.88-15.87 407.03-18.07 406.49-19.78L406.49-19.78 409.42-20.12Q409.47-19.38 409.69-17.7 409.91-16.02 410.17-13.89 410.44-11.77 410.78-9.47 411.13-7.18 411.37-5.2 411.61-3.22 411.81-1.83 412.01-0.44 412.01-0.1L412.01-0.1 409.91-0.1 407.61-8.54Q406.93-6.84 405.95-5.27 404.97-3.71 403.83-2.54 402.68-1.37 401.41-0.71 400.14-0.05 398.9-0.17 397.65-0.29 396.48-1.32 395.31-2.34 394.31-4.57 393.3-6.79 392.57-10.3 391.84-13.82 391.5-18.95ZM415.08-37.94L415.08-37.94Q415.76-37.84 416.28-37.57 416.79-37.3 417.08-36.62L417.08-36.62Q417.08-35.69 417.15-34.06 417.23-32.42 417.3-30.27 417.37-28.13 417.47-25.63 417.57-23.14 417.67-20.61 417.76-18.07 417.84-15.58 417.91-13.09 417.98-10.94 418.06-8.79 418.11-7.13 418.16-5.47 418.2-4.59L418.2-4.59Q418.2-4.49 418.18-4.25 418.16-4 418.13-3.66 418.11-3.32 418.08-3 418.06-2.69 418.06-2.54L418.06-2.54Q418.01-2.25 418.01-1.83 418.01-1.42 417.91-1.03 417.81-0.63 417.59-0.32 417.37 0 416.89 0.05L416.89 0.05 416.06-0.98Q416.01-1.03 415.93-2.81 415.86-4.59 415.74-7.45 415.62-10.3 415.52-13.89 415.42-17.48 415.3-21.14 415.18-24.8 415.08-28.17 414.98-31.54 414.93-33.98L414.93-33.98Q414.93-34.18 414.96-34.77 414.98-35.35 415.01-35.96 415.03-36.57 415.05-37.13 415.08-37.7 415.08-37.94ZM426.94-17.72L426.94-17.72Q426.5-17.87 425.75-17.85 424.99-17.82 424.13-17.75 423.28-17.68 422.5-17.58 421.72-17.48 421.18-17.48L421.18-17.48Q420.94-17.48 420.86-18.19 420.79-18.9 420.64-20.12L420.64-20.12 427.53-20.61Q427.67-22.31 427.72-23.05 427.77-23.78 427.75-24.29 427.72-24.8 427.7-25.46 427.67-26.12 427.67-27.54L427.67-27.54Q428.94-27.73 429.6-27.66 430.26-27.59 430.51-27.29 430.75-27 430.73-26.44 430.7-25.88 430.58-25.05 430.46-24.22 430.38-23.05 430.31-21.88 430.46-20.41L430.46-20.41 436.32-20.61 436.32-18.21Q435.93-18.21 435.1-18.16 434.27-18.12 433.31-18.07 432.36-18.02 431.56-17.97 430.75-17.92 430.36-17.77L430.36-17.77Q429.97-16.02 429.53-14.01 429.09-12.01 428.94-10.06 428.8-8.11 429.04-6.42 429.29-4.74 430.26-3.64 431.24-2.54 433.05-2.12 434.85-1.71 437.83-2.39L437.83-2.39Q437.73-1.66 437.27-1.2 436.81-0.73 436.19-0.46 435.58-0.2 434.9-0.07 434.22 0.05 433.68 0.05L433.68 0.05Q431.19 0.05 429.73-0.85 428.26-1.76 427.53-3.22 426.8-4.69 426.6-6.57 426.4-8.45 426.48-10.4 426.55-12.35 426.75-14.26 426.94-16.16 426.94-17.72ZM439.49-18.95L439.49-18.95Q439.49-19.19 439.81-19.43 440.12-19.68 440.59-19.82 441.05-19.97 441.49-20.02 441.93-20.07 442.13-19.87L442.13-19.87Q442.42-13.82 443.27-10.23 444.13-6.64 445.23-4.98 446.32-3.32 447.59-3.3 448.86-3.27 450.08-4.37 451.3-5.47 452.35-7.37 453.4-9.28 454.06-11.47 454.72-13.67 454.87-15.87 455.02-18.07 454.48-19.78L454.48-19.78 457.41-20.12Q457.46-19.38 457.68-17.7 457.9-16.02 458.17-13.89 458.43-11.77 458.78-9.47 459.12-7.18 459.36-5.2 459.61-3.22 459.8-1.83 460-0.44 460-0.1L460-0.1 457.9-0.1 455.6-8.54Q454.92-6.84 453.94-5.27 452.96-3.71 451.82-2.54 450.67-1.37 449.4-0.71 448.13-0.05 446.89-0.17 445.64-0.29 444.47-1.32 443.3-2.34 442.3-4.57 441.29-6.79 440.56-10.3 439.83-13.82 439.49-18.95ZM461.56-19.04L461.56-19.04Q462.14-19.29 462.58-19.14 463.02-18.99 463.31-18.6 463.61-18.21 463.75-17.7 463.9-17.19 464-16.7L464-16.7Q464.63-17.77 465.83-18.43 467.02-19.09 468.39-19.31 469.76-19.53 471.13-19.41 472.49-19.29 473.45-18.82 474.4-18.36 474.79-17.55 475.18-16.75 474.59-15.67L474.59-15.67Q473.32-16.41 471.93-16.85 470.54-17.29 469.22-17.14 467.9-16.99 466.78-16.14 465.66-15.28 464.93-13.43 464.19-11.57 464.02-8.52 463.85-5.47 464.44-0.93L464.44-0.93 462.58-0.93Q462.58-0.93 462.51-1.73 462.44-2.54 462.36-3.86 462.29-5.18 462.17-6.79 462.04-8.4 461.95-10.06 461.85-11.72 461.78-13.26 461.7-14.79 461.6-15.92L461.6-15.92Q461.6-16.06 461.58-16.5 461.56-16.94 461.56-17.46 461.56-17.97 461.56-18.41 461.56-18.85 461.56-19.04ZM477.13-11.47L477.13-11.47Q477.13-12.94 477.76-14.72 478.4-16.5 479.5-18.04 480.6-19.58 481.99-20.63 483.38-21.68 484.89-21.68L484.89-21.68Q485.72-21.68 486.53-21.34 487.33-21 488.09-20.43 488.85-19.87 489.46-19.17 490.07-18.46 490.41-17.68 490.75-16.89 490.78-16.16 490.8-15.43 490.36-14.89L490.36-14.89 480.06-12.99Q479.86-12.94 479.72-12.52 479.57-12.11 479.47-11.47 479.38-10.84 479.3-10.08 479.23-9.33 479.18-8.62 479.13-7.91 479.13-7.35 479.13-6.79 479.13-6.49L479.13-6.49Q479.13-5.13 479.79-4.27 480.45-3.42 481.48-2.98 482.5-2.54 483.79-2.39 485.09-2.25 486.36-2.25 487.63-2.25 488.75-2.34 489.87-2.44 490.61-2.44L490.61-2.44Q490.61-2.25 490.46-2 490.31-1.76 490.12-1.54 489.92-1.32 489.73-1.15 489.53-0.98 489.48-0.93L489.48-0.93Q489.09-0.83 488.29-0.66 487.48-0.49 486.58-0.34 485.67-0.2 484.89-0.1 484.11 0 483.82 0L483.82 0Q482.31 0.29 481.18-0.05 480.06-0.39 479.28-1.22 478.5-2.05 478.01-3.25 477.52-4.44 477.28-5.81 477.03-7.18 477.01-8.64 476.98-10.11 477.13-11.47ZM484.21-19.82L484.21-19.82Q483.77-19.82 483.06-19.36 482.35-18.9 481.74-18.19 481.13-17.48 480.72-16.67 480.3-15.87 480.45-15.28L480.45-15.28Q481.72-15.14 483.09-15.33 484.45-15.53 485.58-15.94 486.7-16.36 487.43-16.92 488.16-17.48 488.14-18.07 488.12-18.65 487.21-19.12 486.31-19.58 484.21-19.82ZM495.83-3.96L495.83-3.96Q496.71-3.96 497.46-3.61 498.22-3.27 498.95-2.86 499.69-2.44 500.44-2.12 501.2-1.81 502.08-1.81L502.08-1.81Q503.1-1.81 504.2-2.17 505.3-2.54 506.23-3.2 507.16-3.86 507.74-4.81 508.33-5.76 508.33-6.88L508.33-6.88Q508.38-7.23 508.35-7.71 508.33-8.2 508.04-8.72 507.74-9.23 507.06-9.69 506.38-10.16 505.08-10.4 503.79-10.64 501.83-10.67 499.88-10.69 497-10.3L497-10.3Q496.27-10.3 495.58-10.72 494.9-11.13 494.36-11.74 493.83-12.35 493.48-13.06 493.14-13.77 493.14-14.4L493.14-14.4Q493.14-16.31 493.95-17.5 494.75-18.7 496.02-19.41 497.29-20.12 498.86-20.41 500.42-20.7 502.03-20.7L502.03-20.7Q502.76-20.7 503.71-20.63 504.67-20.56 505.47-20.24 506.28-19.92 506.84-19.24 507.4-18.55 507.4-17.33L507.4-17.33Q507.3-16.5 507.13-16.33 506.96-16.16 506.64-16.43 506.33-16.7 505.89-17.19 505.45-17.68 504.84-18.14 504.23-18.6 503.37-18.85 502.52-19.09 501.44-18.85L501.44-18.85Q500.32-18.85 499.2-18.63 498.07-18.41 497.17-17.87 496.27-17.33 495.71-16.41 495.14-15.48 495.14-14.06L495.14-14.06Q495.14-13.33 495.8-13.06 496.46-12.79 497.56-12.79 498.66-12.79 500.05-12.87 501.44-12.94 502.91-12.94 504.37-12.94 505.74-12.72 507.11-12.5 508.16-11.84 509.21-11.18 509.79-9.96 510.38-8.74 510.23-6.79L510.23-6.79Q510.23-5.37 509.43-4.1 508.62-2.83 507.38-1.88 506.13-0.93 504.62-0.39 503.1 0.15 501.69 0L501.69 0Q501.1-0.05 500.1-0.32 499.1-0.59 498.15-1.07 497.2-1.56 496.51-2.27 495.83-2.98 495.83-3.96ZM531.47-8.94L531.47-8.94Q531.47-10.06 531.66-11.55 531.86-13.04 532.3-14.55 532.74-16.06 533.4-17.53 534.06-18.99 534.98-20.14 535.91-21.29 537.13-22 538.35-22.71 539.87-22.71L539.87-22.71Q541.43-22.71 542.77-21.63 544.11-20.56 545.07-18.85 546.02-17.14 546.51-15.04 547-12.94 546.9-10.94L546.9-10.94Q546.9-8.01 545.77-5.71 544.65-3.42 542.92-2 541.18-0.59 539.21-0.1 537.23 0.39 535.5-0.37 533.76-1.12 532.62-3.22 531.47-5.32 531.47-8.94ZM533.27-8.74L533.27-8.74Q533.42-5.76 534.3-4.15 535.18-2.54 536.42-2.03 537.67-1.51 539.13-2 540.6-2.49 541.87-3.74 543.14-4.98 544.04-6.86 544.94-8.74 545.04-11.08L545.04-11.08Q545.14-12.84 544.77-14.5 544.41-16.16 543.75-17.46 543.09-18.75 542.14-19.51 541.18-20.26 539.96-20.26L539.96-20.26Q538.79-20.26 537.86-19.68 536.94-19.09 536.18-18.09 535.42-17.09 534.89-15.82 534.35-14.55 533.98-13.28 533.62-12.01 533.45-10.82 533.27-9.62 533.27-8.74ZM554.76-0.24L554.76-0.24Q555.2-3.37 555.34-5.42 555.49-7.47 555.46-8.96 555.44-10.45 555.39-11.6 555.34-12.74 555.39-14.01L555.39-14.01Q554.76-14.01 554.02-13.72 553.29-13.43 552.51-13.06 551.73-12.7 550.97-12.4 550.22-12.11 549.58-12.11L549.58-12.11Q549.34-12.11 549.26-12.3 549.19-12.5 549.14-12.79 549.09-13.09 549.07-13.4 549.04-13.72 548.9-14.06L548.9-14.06 555.49-16.89Q554.56-24.22 554.83-29.13 555.1-34.03 556.25-37.04 557.39-40.04 559.27-41.43 561.15-42.82 563.45-43.16L563.45-43.16Q565.25-43.16 566.89-42.46 568.53-41.75 569.77-40.53 571.02-39.31 571.77-37.7 572.53-36.08 572.53-34.28L572.53-34.28Q571.75-34.28 571.09-34.79 570.43-35.3 569.84-36.08 569.26-36.87 568.67-37.77 568.09-38.67 567.38-39.45 566.67-40.23 565.84-40.75 565.01-41.26 563.89-41.26L563.89-41.26Q562.91-41.06 561.96-40.45 561.01-39.84 560.2-38.72 559.4-37.6 558.76-35.86 558.13-34.13 557.78-31.59 557.44-29.05 557.42-25.61 557.39-22.17 557.83-17.72L557.83-17.72 563.89-17.77Q564.03-17.14 564.06-16.67 564.08-16.21 563.35-15.92L563.35-15.92Q562.81-15.72 561.98-15.55 561.15-15.38 560.3-15.26 559.44-15.14 558.71-15.06 557.98-14.99 557.69-14.94L557.69-14.94Q557.64-12.65 557.73-10.57 557.83-8.5 557.88-6.62 557.93-4.74 557.86-3.1 557.78-1.46 557.34 0.05L557.34 0.05Q557.3 0.05 557.08 0.05 556.86 0.05 556.61 0.05 556.37 0.05 556.15 0.05 555.93 0.05 555.93 0.05L555.93 0.05Q555.73 0.05 555.51 0.1 555.29 0.15 555.12 0.17 554.95 0.2 554.85 0.12 554.76 0.05 554.76-0.24ZM586-12.65L586-12.65Q586-14.16 586.32-16.04 586.64-17.92 587.27-19.85 587.91-21.78 588.86-23.61 589.81-25.44 591.06-26.88 592.3-28.32 593.89-29.2 595.47-30.08 597.38-30.08L597.38-30.08Q598.75-30.08 599.7-29.54 600.65-29 601.24-28.13 601.82-27.25 602.09-26.15 602.36-25.05 602.36-23.93L602.36-23.93Q601.28-23.93 600.75-24.58 600.21-25.24 599.75-26.05 599.28-26.86 598.67-27.51 598.06-28.17 596.84-28.17L596.84-28.17Q595.23-28.17 593.98-27.29 592.74-26.42 591.81-25.02 590.88-23.63 590.27-21.88 589.66-20.12 589.3-18.36 588.93-16.6 588.78-14.97 588.64-13.33 588.64-12.21L588.64-12.21Q588.44-10.55 588.61-8.76 588.78-6.98 589.42-5.49 590.05-4 591.27-3 592.5-2 594.5-1.86L594.5-1.86Q595.77-1.86 597.33-2.27 598.89-2.69 600.43-3.25 601.97-3.81 603.38-4.47 604.8-5.13 605.78-5.62L605.78-5.62 605.78-3.71Q605.73-3.71 605.17-3.49 604.6-3.27 603.7-2.93 602.8-2.59 601.65-2.2 600.5-1.81 599.38-1.39 598.26-0.98 597.21-0.61 596.16-0.24 595.43 0L595.43 0Q595.38 0 595.23 0.02 595.08 0.05 594.99 0.05L594.99 0.05Q592.3 0.05 590.57-1.1 588.83-2.25 587.81-4.08 586.78-5.91 586.39-8.18 586-10.45 586-12.65ZM607.58-4.2L607.58-4.2Q607.58-6.98 609.12-8.25 610.66-9.52 613.15-9.52L613.15-9.52Q614.12-9.52 614.98-9.47 615.83-9.42 616.61-9.23 617.4-9.03 618.15-8.64 618.91-8.25 619.74-7.52L619.74-7.52Q619.74-7.67 619.76-8.13 619.79-8.59 619.79-9.13 619.79-9.67 619.79-10.13 619.79-10.6 619.79-10.79L619.79-10.79Q619.74-11.67 619.74-13.06 619.74-14.45 619.52-15.92 619.3-17.38 618.64-18.7 617.98-20.02 616.52-20.7L616.52-20.7Q615.49-20.7 614.61-20.36 613.73-20.02 612.85-19.63 611.98-19.24 611.1-18.92 610.22-18.6 609.19-18.6L609.19-18.6Q609.19-19.82 609.95-20.63 610.71-21.44 611.78-21.88 612.85-22.31 614.03-22.46 615.2-22.61 616.08-22.61L616.08-22.61Q616.96-22.46 617.71-22.27 618.47-22.07 619.13-21.48 619.79-20.9 620.35-19.7 620.91-18.51 621.33-16.36 621.74-14.21 622.06-10.91 622.38-7.62 622.57-2.83L622.57-2.83Q622.67-2.2 622.16-1.73 621.64-1.27 620.76-0.95 619.89-0.63 618.79-0.42 617.69-0.2 616.57-0.1 615.44 0 614.42 0.05 613.39 0.1 612.71 0.1L612.71 0.1Q611.83 0.1 610.93-0.2 610.02-0.49 609.27-1.05 608.51-1.61 608.04-2.42 607.58-3.22 607.58-4.2ZM613.93-7.62L613.93-7.62Q611.49-6.93 610.51-5.98 609.53-5.03 609.66-4.15 609.78-3.27 610.8-2.56 611.83-1.86 613.29-1.64 614.76-1.42 616.47-1.88 618.18-2.34 619.74-3.71L619.74-3.71Q619.15-5.13 618.57-5.88 617.98-6.64 617.3-7.03 616.61-7.42 615.78-7.52 614.95-7.62 613.93-7.62ZM624.47-19.04L624.47-19.04Q625.06-19.04 625.74-18.75 626.43-18.46 626.72-17.58L626.72-17.58Q627.11-19.24 627.92-20.26 628.72-21.29 629.77-21.68 630.82-22.07 631.97-21.95 633.12-21.83 634.12-21.24 635.12-20.65 635.87-19.73 636.63-18.8 636.92-17.58L636.92-17.58Q637.46-19.09 638.36-20.39 639.27-21.68 640.37-22.56 641.47-23.44 642.66-23.78 643.86-24.12 644.91-23.75 645.96-23.39 646.76-22.19 647.57-21 647.91-18.75L647.91-18.75Q648.01-18.12 648.15-16.87 648.3-15.63 648.47-14.06 648.64-12.5 648.86-10.77 649.08-9.03 649.25-7.47 649.42-5.91 649.57-4.66 649.72-3.42 649.81-2.83L649.81-2.83Q649.81-2.34 649.77-1.76 649.72-1.17 649.55-0.76 649.38-0.34 649.01-0.22 648.64-0.1 647.91-0.63L647.91-0.63Q647.91-1.22 647.76-2.54 647.62-3.86 647.47-5.59 647.32-7.32 647.1-9.25 646.89-11.18 646.67-12.89 646.45-14.6 646.3-15.92 646.15-17.24 646.01-17.77L646.01-17.77Q645.27-20.02 644.47-20.9 643.66-21.78 642.86-21.68 642.05-21.58 641.32-20.65 640.59-19.73 640-18.31 639.41-16.89 638.9-15.16 638.39-13.43 638.12-11.72 637.85-10.01 637.78-8.5 637.71-6.98 637.95-6.01L637.95-6.01 636.05-5.62Q636.19-10.3 635.73-13.31 635.26-16.31 634.46-17.92 633.65-19.53 632.63-19.85 631.6-20.17 630.6-19.43 629.6-18.7 628.77-16.99 627.94-15.28 627.52-12.87 627.11-10.45 627.21-7.42 627.31-4.39 628.23-0.93L628.23-0.93 626.38-0.93Q626.38-0.93 626.26-1.86 626.13-2.78 625.96-4.22 625.79-5.66 625.6-7.5 625.4-9.33 625.21-11.21 625.01-13.09 624.81-14.82 624.62-16.55 624.47-17.77L624.47-17.77Q624.47-17.92 624.47-18.43 624.47-18.95 624.47-19.04ZM652.25-11.47L652.25-11.47Q652.25-12.94 652.89-14.72 653.52-16.5 654.62-18.04 655.72-19.58 657.11-20.63 658.5-21.68 660.02-21.68L660.02-21.68Q660.85-21.68 661.65-21.34 662.46-21 663.22-20.43 663.97-19.87 664.58-19.17 665.19-18.46 665.53-17.68 665.88-16.89 665.9-16.16 665.93-15.43 665.49-14.89L665.49-14.89 655.18-12.99Q654.99-12.94 654.84-12.52 654.7-12.11 654.6-11.47 654.5-10.84 654.43-10.08 654.35-9.33 654.3-8.62 654.26-7.91 654.26-7.35 654.26-6.79 654.26-6.49L654.26-6.49Q654.26-5.13 654.91-4.27 655.57-3.42 656.6-2.98 657.62-2.54 658.92-2.39 660.21-2.25 661.48-2.25 662.75-2.25 663.87-2.34 665-2.44 665.73-2.44L665.73-2.44Q665.73-2.25 665.58-2 665.44-1.76 665.24-1.54 665.05-1.32 664.85-1.15 664.66-0.98 664.61-0.93L664.61-0.93Q664.22-0.83 663.41-0.66 662.61-0.49 661.7-0.34 660.8-0.2 660.02-0.1 659.24 0 658.94 0L658.94 0Q657.43 0.29 656.31-0.05 655.18-0.39 654.4-1.22 653.62-2.05 653.13-3.25 652.64-4.44 652.4-5.81 652.16-7.18 652.13-8.64 652.11-10.11 652.25-11.47ZM659.33-19.82L659.33-19.82Q658.89-19.82 658.19-19.36 657.48-18.9 656.87-18.19 656.26-17.48 655.84-16.67 655.43-15.87 655.57-15.28L655.57-15.28Q656.84-15.14 658.21-15.33 659.58-15.53 660.7-15.94 661.82-16.36 662.56-16.92 663.29-17.48 663.26-18.07 663.24-18.65 662.34-19.12 661.43-19.58 659.33-19.82ZM668.07-19.04L668.07-19.04Q668.66-19.29 669.1-19.14 669.54-18.99 669.83-18.6 670.12-18.21 670.27-17.7 670.42-17.19 670.51-16.7L670.51-16.7Q671.15-17.77 672.34-18.43 673.54-19.09 674.91-19.31 676.27-19.53 677.64-19.41 679.01-19.29 679.96-18.82 680.91-18.36 681.3-17.55 681.69-16.75 681.11-15.67L681.11-15.67Q679.84-16.41 678.45-16.85 677.06-17.29 675.74-17.14 674.42-16.99 673.3-16.14 672.17-15.28 671.44-13.43 670.71-11.57 670.54-8.52 670.37-5.47 670.95-0.93L670.95-0.93 669.1-0.93Q669.1-0.93 669.02-1.73 668.95-2.54 668.88-3.86 668.8-5.18 668.68-6.79 668.56-8.4 668.46-10.06 668.36-11.72 668.29-13.26 668.22-14.79 668.12-15.92L668.12-15.92Q668.12-16.06 668.1-16.5 668.07-16.94 668.07-17.46 668.07-17.97 668.07-18.41 668.07-18.85 668.07-19.04ZM683.55-8.94L683.55-8.94Q683.55-10.06 683.74-11.55 683.94-13.04 684.38-14.55 684.82-16.06 685.48-17.53 686.14-18.99 687.06-20.14 687.99-21.29 689.21-22 690.43-22.71 691.95-22.71L691.95-22.71Q693.51-22.71 694.85-21.63 696.19-20.56 697.15-18.85 698.1-17.14 698.59-15.04 699.07-12.94 698.98-10.94L698.98-10.94Q698.98-8.01 697.85-5.71 696.73-3.42 695-2 693.26-0.59 691.29-0.1 689.31 0.39 687.58-0.37 685.84-1.12 684.7-3.22 683.55-5.32 683.55-8.94ZM685.35-8.74L685.35-8.74Q685.5-5.76 686.38-4.15 687.26-2.54 688.5-2.03 689.75-1.51 691.21-2 692.68-2.49 693.95-3.74 695.22-4.98 696.12-6.86 697.02-8.74 697.12-11.08L697.12-11.08Q697.22-12.84 696.85-14.5 696.49-16.16 695.83-17.46 695.17-18.75 694.22-19.51 693.26-20.26 692.04-20.26L692.04-20.26Q690.87-20.26 689.94-19.68 689.02-19.09 688.26-18.09 687.5-17.09 686.97-15.82 686.43-14.55 686.06-13.28 685.7-12.01 685.53-10.82 685.35-9.62 685.35-8.74ZM701.66-8.94L701.66-8.94Q701.66-10.06 701.86-11.55 702.05-13.04 702.49-14.55 702.93-16.06 703.59-17.53 704.25-18.99 705.18-20.14 706.1-21.29 707.32-22 708.55-22.71 710.06-22.71L710.06-22.71Q711.62-22.71 712.96-21.63 714.31-20.56 715.26-18.85 716.21-17.14 716.7-15.04 717.19-12.94 717.09-10.94L717.09-10.94Q717.09-8.01 715.97-5.71 714.84-3.42 713.11-2 711.38-0.59 709.4-0.1 707.42 0.39 705.69-0.37 703.96-1.12 702.81-3.22 701.66-5.32 701.66-8.94ZM703.47-8.74L703.47-8.74Q703.61-5.76 704.49-4.15 705.37-2.54 706.62-2.03 707.86-1.51 709.33-2 710.79-2.49 712.06-3.74 713.33-4.98 714.23-6.86 715.14-8.74 715.23-11.08L715.23-11.08Q715.33-12.84 714.97-14.5 714.6-16.16 713.94-17.46 713.28-18.75 712.33-19.51 711.38-20.26 710.16-20.26L710.16-20.26Q708.98-20.26 708.06-19.68 707.13-19.09 706.37-18.09 705.62-17.09 705.08-15.82 704.54-14.55 704.17-13.28 703.81-12.01 703.64-10.82 703.47-9.62 703.47-8.74ZM720.26-0.24L720.26-0.24Q720.16-1.03 720.09-2.51 720.02-4 719.94-5.88 719.87-7.76 719.82-9.81 719.77-11.87 719.72-13.72 719.68-15.58 719.6-17.07 719.53-18.55 719.38-19.34L719.38-19.34Q719.38-19.38 719.36-19.58 719.33-19.78 719.31-20.02 719.28-20.26 719.28-20.43 719.28-20.61 719.28-20.7L719.28-20.7Q720.02-21.29 720.53-21.09 721.04-20.9 721.38-20.24 721.73-19.58 721.87-18.6 722.02-17.63 722.09-16.65 722.17-15.67 722.17-14.87 722.17-14.06 722.17-13.72L722.17-13.72Q722.26-14.55 722.46-15.67 722.65-16.8 723.04-17.97 723.44-19.14 724-20.29 724.56-21.44 725.39-22.31 726.22-23.19 727.27-23.68 728.32-24.17 729.69-24.07L729.69-24.07Q731.83-23.97 733.23-22.9 734.62-21.83 735.42-20.02 736.23-18.21 736.59-15.87 736.96-13.53 737.08-10.89 737.2-8.25 737.16-5.54 737.11-2.83 737.11-0.34L737.11-0.34Q736.67-0.24 736.23-0.02 735.79 0.2 735.5 0.17 735.2 0.15 735.08-0.27 734.96-0.68 735.15-1.9L735.15-1.9Q735.2-2.78 735.32-4.61 735.45-6.45 735.42-8.69 735.4-10.94 735.15-13.33 734.91-15.72 734.25-17.7 733.59-19.68 732.37-20.92 731.15-22.17 729.2-22.17L729.2-22.17Q727.19-21.34 725.85-19.04 724.51-16.75 723.7-13.67 722.9-10.6 722.53-7.01 722.17-3.42 722.12 0L722.12 0Q722.02-0.05 721.75-0.05 721.48-0.05 721.16-0.07 720.85-0.1 720.58-0.15 720.31-0.2 720.26-0.24Z" opacity="1" transform="matrix(1,0,0,1,0,0)" fill="#ffffff" class="slogan-text-1" data-fill-palette-color="quaternary" id="text-1"></path></svg></g></svg></g></svg></g></svg></g><g transform="matrix(1,0,0,1,67.68031245957282,0)"><svg viewBox="0 0 77.79781630801148 71.65417301634386" height="71.65417301634386" width="77.79781630801148"><g><svg xmlns="http://www.w3.org/2000/svg" xmlns:xlink="http://www.w3.org/1999/xlink" version="1.1" x="0" y="0" viewBox="2.000826954470882 3.737482733266556 43.99909757620192 40.52451726673345" enable-background="new 0 0 48 48" xml:space="preserve" height="71.65417301634386" width="77.79781630801148" class="icon-icon-0" data-fill-palette-color="quaternary" id="icon-0"><path d="M4.35 44.237C4.475 44.255 4.6 44.262 4.726 44.262H42.066A3.06 3.06 0 0 0 45.043 40.517V40.505A14.5 14.5 0 0 0 41.855 34.259 19.22 19.22 0 0 0 36.283 22.643C38.355 19.938 38.019 16.041 35.43 13.747A6.57 6.57 0 0 0 26.165 14.306 6.5 6.5 0 0 0 24.713 17.12 19.4 19.4 0 0 0 20.787 17.105C10.638 18.1 3.017 26.83 3.382 37.007A12.6 12.6 0 0 0 2.027 41.159 2.73 2.73 0 0 0 4.35 44.237M26.913 14.971A5.53 5.53 0 0 1 30.741 13.109 5.48 5.48 0 0 1 34.765 14.499C36.938 16.425 37.218 19.67 35.522 21.96A19.3 19.3 0 0 0 25.702 17.278 5.6 5.6 0 0 1 26.913 14.971M20.885 18.103C30.421 17.172 38.984 23.779 40.661 33.048 40.471 32.876 40.268 32.712 40.069 32.548 38.005 23.025 28.622 16.899 19.058 18.876 11.416 20.458 5.63 26.968 4.932 34.732 4.744 34.952 4.566 35.176 4.392 35.409 4.832 26.442 11.787 18.994 20.885 18.103M17.059 30.575A12.5 12.5 0 0 0 9.835 31.2 13.8 13.8 0 0 1 17.19 23.619C23.831 20.754 31.503 23.528 34.852 29.797A14.53 14.53 0 0 0 27.463 29.605 14.7 14.7 0 0 0 21.596 32.501 12.5 12.5 0 0 0 17.059 30.575M36.194 30.259C32.888 22.885 24.241 19.494 16.795 22.702A14.8 14.8 0 0 0 8.553 31.806C8.34 31.919 8.133 32.046 7.926 32.173A15.31 15.31 0 0 1 18.049 21.711C25.71 19.291 33.868 23.227 36.845 30.541 36.63 30.441 36.413 30.346 36.194 30.259M38.166 31.226C35.383 22.758 26.267 18.061 17.748 20.758A16.31 16.31 0 0 0 6.685 33.035C6.479 33.199 6.284 33.375 6.086 33.551 7.226 26.792 12.468 21.263 19.262 19.857 27.895 18.072 36.367 23.291 38.793 31.615 38.695 31.552 38.607 31.48 38.51 31.421 38.397 31.348 38.28 31.292 38.166 31.226M8.144 33.204A11.5 11.5 0 0 1 16.856 31.555 11.5 11.5 0 0 1 24.182 36.548 0.5 0.5 0 1 0 25.018 36.002 12.6 12.6 0 0 0 22.425 33.129C23.977 31.918 25.777 31.029 27.695 30.58A13.54 13.54 0 0 1 37.986 32.268 13.53 13.53 0 0 1 44.068 40.739V40.742A2.06 2.06 0 0 1 42.066 43.266H4.726A1.732 1.732 0 0 1 3.016 41.303 11.58 11.58 0 0 1 8.144 33.204" fill="#ffffff" data-fill-palette-color="quaternary"></path><path d="M37.762 21.949A0.5 0.5 0 0 0 37.99 22.619L43.828 25.491A0.496 0.496 0 0 0 44.496 25.264 0.5 0.5 0 0 0 44.268 24.595L38.431 21.723A0.5 0.5 0 0 0 37.762 21.949" fill="#ffffff" data-fill-palette-color="quaternary"></path><path d="M45.467 17.203L38.977 17.635A0.5 0.5 0 0 0 39.009 18.633H39.043L45.532 18.201A0.503 0.503 0 0 0 45.999 17.669 0.49 0.49 0 0 0 45.467 17.203" fill="#ffffff" data-fill-palette-color="quaternary"></path><path d="M37.268 14.516A0.5 0.5 0 0 0 37.961 14.654L43.366 11.036A0.5 0.5 0 0 0 42.81 10.204L37.406 13.823A0.5 0.5 0 0 0 37.268 14.516" fill="#ffffff" data-fill-palette-color="quaternary"></path><path d="M34.366 11.977A0.495 0.495 0 0 0 35.034 11.749L37.907 5.913A0.5 0.5 0 1 0 37.009 5.472L34.137 11.308A0.5 0.5 0 0 0 34.366 11.977" fill="#ffffff" data-fill-palette-color="quaternary"></path><path d="M30.549 11.228L30.583 11.227A0.5 0.5 0 0 0 31.049 10.695L30.616 4.205A0.51 0.51 0 0 0 30.085 3.738 0.504 0.504 0 0 0 29.618 4.271L30.051 10.761A0.5 0.5 0 0 0 30.549 11.228" fill="#ffffff" data-fill-palette-color="quaternary"></path><path d="M26.239 12.333A0.497 0.497 0 0 0 26.931 12.471 0.5 0.5 0 0 0 27.069 11.777L23.45 6.372A0.499 0.499 0 1 0 22.62 6.928z" fill="#ffffff" data-fill-palette-color="quaternary"></path><path d="M17.886 12.728L23.723 15.599A0.499 0.499 0 1 0 24.164 14.703L18.327 11.83A0.5 0.5 0 0 0 17.886 12.728" fill="#ffffff" data-fill-palette-color="quaternary"></path></svg></g></svg></g><g></g></svg></g></svg></g></svg></g></svg></g><defs></defs></svg><rect width="342.85155851775386" height="342.85155851775386" fill="none" stroke="none" visibility="hidden"></rect></g></svg></g></svg>