<svg xmlns="http://www.w3.org/2000/svg" version="1.1" xmlns:xlink="http://www.w3.org/1999/xlink" xmlns:svgjs="http://svgjs.dev/svgjs" width="128" height="128" viewBox="0 0 128 128"><g transform="matrix(0.8046875,0,0,0.8046875,12.41184074821259,12.814873242367177)"><svg viewBox="0 0 98 98" data-background-color="#ffffff" preserveAspectRatio="xMidYMid meet" height="127" width="128" xmlns="http://www.w3.org/2000/svg" xmlns:xlink="http://www.w3.org/1999/xlink"><g id="tight-bounds" transform="matrix(1,0,0,1,0.08387967645792571,0.08387967645792571)"><svg viewBox="0 0 97.83224064708415 97.83224064708415" height="97.83224064708415" width="97.83224064708415"><g><svg></svg></g><g><svg viewBox="0 0 97.83224064708415 97.83224064708415" height="97.83224064708415" width="97.83224064708415"><g><path d="M0 48.916c0-27.016 21.9-48.916 48.916-48.916 27.016 0 48.916 21.9 48.916 48.916 0 27.016-21.9 48.916-48.916 48.916-27.016 0-48.916-21.9-48.916-48.916zM48.916 93.606c24.682 0 44.69-20.008 44.69-44.69 0-24.682-20.008-44.69-44.69-44.69-24.682 0-44.69 20.008-44.69 44.69 0 24.682 20.008 44.69 44.69 44.69z" data-fill-palette-color="tertiary" fill="#006f42" stroke="transparent"></path><ellipse rx="46.95947551060039" ry="46.95947551060039" cx="48.916120323542074" cy="48.916120323542074" fill="#006f42" stroke="transparent" stroke-width="0" fill-opacity="1" data-fill-palette-color="tertiary"></ellipse></g><g transform="matrix(1,0,0,1,23.47539391502934,25.484431643235023)"><svg viewBox="0 0 50.88145281702547 46.8633773606141" height="46.8633773606141" width="50.88145281702547"><g><svg viewBox="0 0 50.88145281702547 46.8633773606141" height="46.8633773606141" width="50.88145281702547"><g><svg viewBox="0 0 50.88145281702547 46.8633773606141" height="46.8633773606141" width="50.88145281702547"><g id="textblocktransform"><svg viewBox="0 0 50.88145281702547 46.8633773606141" height="46.8633773606141" width="50.88145281702547" id="textblock"><g><svg viewBox="0 0 50.88145281702547 46.8633773606141" height="46.8633773606141" width="50.88145281702547"><g><svg viewBox="0 0 50.88145281702547 46.8633773606141" height="46.8633773606141" width="50.88145281702547"><g><svg xmlns="http://www.w3.org/2000/svg" xmlns:xlink="http://www.w3.org/1999/xlink" version="1.1" x="0" y="0" viewBox="2.000826954470882 3.737482733266556 43.99909757620192 40.52451726673345" enable-background="new 0 0 48 48" xml:space="preserve" height="46.8633773606141" width="50.88145281702547" class="icon-icon-0" data-fill-palette-color="quaternary" id="icon-0"><path d="M4.35 44.237C4.475 44.255 4.6 44.262 4.726 44.262H42.066A3.06 3.06 0 0 0 45.043 40.517V40.505A14.5 14.5 0 0 0 41.855 34.259 19.22 19.22 0 0 0 36.283 22.643C38.355 19.938 38.019 16.041 35.43 13.747A6.57 6.57 0 0 0 26.165 14.306 6.5 6.5 0 0 0 24.713 17.12 19.4 19.4 0 0 0 20.787 17.105C10.638 18.1 3.017 26.83 3.382 37.007A12.6 12.6 0 0 0 2.027 41.159 2.73 2.73 0 0 0 4.35 44.237M26.913 14.971A5.53 5.53 0 0 1 30.741 13.109 5.48 5.48 0 0 1 34.765 14.499C36.938 16.425 37.218 19.67 35.522 21.96A19.3 19.3 0 0 0 25.702 17.278 5.6 5.6 0 0 1 26.913 14.971M20.885 18.103C30.421 17.172 38.984 23.779 40.661 33.048 40.471 32.876 40.268 32.712 40.069 32.548 38.005 23.025 28.622 16.899 19.058 18.876 11.416 20.458 5.63 26.968 4.932 34.732 4.744 34.952 4.566 35.176 4.392 35.409 4.832 26.442 11.787 18.994 20.885 18.103M17.059 30.575A12.5 12.5 0 0 0 9.835 31.2 13.8 13.8 0 0 1 17.19 23.619C23.831 20.754 31.503 23.528 34.852 29.797A14.53 14.53 0 0 0 27.463 29.605 14.7 14.7 0 0 0 21.596 32.501 12.5 12.5 0 0 0 17.059 30.575M36.194 30.259C32.888 22.885 24.241 19.494 16.795 22.702A14.8 14.8 0 0 0 8.553 31.806C8.34 31.919 8.133 32.046 7.926 32.173A15.31 15.31 0 0 1 18.049 21.711C25.71 19.291 33.868 23.227 36.845 30.541 36.63 30.441 36.413 30.346 36.194 30.259M38.166 31.226C35.383 22.758 26.267 18.061 17.748 20.758A16.31 16.31 0 0 0 6.685 33.035C6.479 33.199 6.284 33.375 6.086 33.551 7.226 26.792 12.468 21.263 19.262 19.857 27.895 18.072 36.367 23.291 38.793 31.615 38.695 31.552 38.607 31.48 38.51 31.421 38.397 31.348 38.28 31.292 38.166 31.226M8.144 33.204A11.5 11.5 0 0 1 16.856 31.555 11.5 11.5 0 0 1 24.182 36.548 0.5 0.5 0 1 0 25.018 36.002 12.6 12.6 0 0 0 22.425 33.129C23.977 31.918 25.777 31.029 27.695 30.58A13.54 13.54 0 0 1 37.986 32.268 13.53 13.53 0 0 1 44.068 40.739V40.742A2.06 2.06 0 0 1 42.066 43.266H4.726A1.732 1.732 0 0 1 3.016 41.303 11.58 11.58 0 0 1 8.144 33.204" fill="#ffffff" data-fill-palette-color="quaternary"></path><path d="M37.762 21.949A0.5 0.5 0 0 0 37.99 22.619L43.828 25.491A0.496 0.496 0 0 0 44.496 25.264 0.5 0.5 0 0 0 44.268 24.595L38.431 21.723A0.5 0.5 0 0 0 37.762 21.949" fill="#ffffff" data-fill-palette-color="quaternary"></path><path d="M45.467 17.203L38.977 17.635A0.5 0.5 0 0 0 39.009 18.633H39.043L45.532 18.201A0.503 0.503 0 0 0 45.999 17.669 0.49 0.49 0 0 0 45.467 17.203" fill="#ffffff" data-fill-palette-color="quaternary"></path><path d="M37.268 14.516A0.5 0.5 0 0 0 37.961 14.654L43.366 11.036A0.5 0.5 0 0 0 42.81 10.204L37.406 13.823A0.5 0.5 0 0 0 37.268 14.516" fill="#ffffff" data-fill-palette-color="quaternary"></path><path d="M34.366 11.977A0.495 0.495 0 0 0 35.034 11.749L37.907 5.913A0.5 0.5 0 1 0 37.009 5.472L34.137 11.308A0.5 0.5 0 0 0 34.366 11.977" fill="#ffffff" data-fill-palette-color="quaternary"></path><path d="M30.549 11.228L30.583 11.227A0.5 0.5 0 0 0 31.049 10.695L30.616 4.205A0.51 0.51 0 0 0 30.085 3.738 0.504 0.504 0 0 0 29.618 4.271L30.051 10.761A0.5 0.5 0 0 0 30.549 11.228" fill="#ffffff" data-fill-palette-color="quaternary"></path><path d="M26.239 12.333A0.497 0.497 0 0 0 26.931 12.471 0.5 0.5 0 0 0 27.069 11.777L23.45 6.372A0.499 0.499 0 1 0 22.62 6.928z" fill="#ffffff" data-fill-palette-color="quaternary"></path><path d="M17.886 12.728L23.723 15.599A0.499 0.499 0 1 0 24.164 14.703L18.327 11.83A0.5 0.5 0 0 0 17.886 12.728" fill="#ffffff" data-fill-palette-color="quaternary"></path></svg></g></svg></g></svg></g></svg></g></svg></g><g></g></svg></g></svg></g></svg></g><defs></defs></svg><rect width="97.83224064708415" height="97.83224064708415" fill="none" stroke="none" visibility="hidden"></rect></g></svg></g></svg>